<svg xmlns="http://www.w3.org/2000/svg" width="100" height="107" viewBox="0 0 100 107">
<g>
<path d="M 73.79 82.18 C70.16,84.09 67.59,84.49 57.00,84.81 C50.12,85.01 44.16,84.84 43.75,84.42 C43.34,84.01 43.00,82.39 43.00,80.83 L 43.00 78.00 L 55.05 78.00 C70.83,78.00 75.00,75.97 75.00,68.29 C75.00,62.23 71.32,60.06 55.82,57.01 C44.94,54.86 39.12,48.03 40.39,38.91 C41.63,30.08 48.90,25.00 60.32,25.00 L 67.00 25.00 L 67.00 32.00 L 60.13 32.00 C54.77,32.00 52.71,32.44 50.71,34.01 C45.81,37.87 46.34,45.59 51.71,48.34 C53.24,49.13 58.10,50.56 62.50,51.52 C77.31,54.76 82.00,58.76 82.00,68.15 C81.99,74.92 79.51,79.17 73.79,82.18 ZM 36.81 81.25 L 36.50 84.50 L 27.45 84.78 C22.47,84.94 18.09,84.75 17.70,84.37 C17.32,83.98 17.00,82.42 17.00,80.90 C17.00,78.50 17.44,78.08 20.25,77.81 L 23.50 77.50 L 23.77 57.75 L 24.04 38.00 L 31.00 38.00 L 31.00 78.00 L 34.06 78.00 C36.92,78.00 37.11,78.22 36.81,81.25 ZM 79.96 30.55 C78.42,32.41 75.58,32.41 74.04,30.55 C71.38,27.35 75.29,22.43 78.75,24.61 C80.97,26.01 81.51,28.67 79.96,30.55 ZM 30.81 28.25 C30.54,31.11 30.11,31.54 27.25,31.81 C24.13,32.11 24.00,31.98 24.00,28.56 C24.00,25.15 24.15,25.00 27.56,25.00 C30.98,25.00 31.11,25.13 30.81,28.25 Z" fill="rgb(62,63,125)"/>
<path d="M 0.00 53.50 L 0.00 0.00 L 50.00 0.00 L 100.00 0.00 L 100.00 53.50 L 100.00 107.00 L 50.00 107.00 L 0.00 107.00 L 0.00 53.50 ZM 36.81 81.25 C37.11,78.22 36.92,78.00 34.06,78.00 L 31.00 78.00 L 31.00 58.00 L 31.00 38.00 L 27.52 38.00 L 24.04 38.00 L 23.77 57.75 L 23.50 77.50 L 20.25 77.81 C17.44,78.08 17.00,78.50 17.00,80.90 C17.00,82.42 17.32,83.98 17.70,84.37 C18.09,84.75 22.47,84.94 27.45,84.78 L 36.50 84.50 L 36.81 81.25 ZM 73.79 82.18 C79.51,79.17 81.99,74.92 82.00,68.15 C82.00,58.76 77.31,54.76 62.50,51.52 C58.10,50.56 53.24,49.13 51.71,48.34 C46.34,45.59 45.81,37.87 50.71,34.01 C52.71,32.44 54.77,32.00 60.13,32.00 L 67.00 32.00 L 67.00 28.50 L 67.00 25.00 L 60.32 25.00 C48.90,25.00 41.63,30.08 40.39,38.91 C39.12,48.03 44.94,54.86 55.82,57.01 C71.32,60.06 75.00,62.23 75.00,68.29 C75.00,75.97 70.83,78.00 55.05,78.00 L 43.00 78.00 L 43.00 80.83 C43.00,82.39 43.34,84.01 43.75,84.42 C44.16,84.84 50.12,85.01 57.00,84.81 C67.59,84.49 70.16,84.09 73.79,82.18 ZM 30.81 28.25 C31.11,25.13 30.98,25.00 27.56,25.00 C24.15,25.00 24.00,25.15 24.00,28.56 C24.00,31.98 24.13,32.11 27.25,31.81 C30.11,31.54 30.54,31.11 30.81,28.25 ZM 79.96 30.55 C81.51,28.67 80.97,26.01 78.75,24.61 C75.29,22.43 71.38,27.35 74.04,30.55 C75.58,32.41 78.42,32.41 79.96,30.55 Z" fill="rgb(250,252,252)"/>
</g>
</svg>