<svg width="96" height="96" viewBox="0 0 96 96" fill="none" xmlns="http://www.w3.org/2000/svg">
<path d="M80 44C80 61.6731 65.6731 76 48 76C30.3269 76 16 61.6731 16 44C16 26.3269 30.3269 12 48 12C65.6731 12 80 26.3269 80 44Z" fill="#FFBB0D"/>
<path fill-rule="evenodd" clip-rule="evenodd" d="M82.3704 43.9998C82.3704 62.982 66.9822 78.3701 48 78.3701C29.0178 78.3701 13.6296 62.982 13.6296 43.9998C13.6296 25.0175 29.0178 9.62939 48 9.62939C66.9822 9.62939 82.3704 25.0175 82.3704 43.9998ZM48 75.9998C65.6731 75.9998 80 61.6729 80 43.9998C80 26.3267 65.6731 11.9998 48 11.9998C30.3269 11.9998 16 26.3267 16 43.9998C16 61.6729 30.3269 75.9998 48 75.9998Z" fill="#E89B05"/>
<path fill-rule="evenodd" clip-rule="evenodd" d="M18.3704 45.1851C17.7158 45.1851 17.1852 44.6544 17.1852 43.9999C17.1852 26.9813 30.9814 13.1851 48 13.1851C48.6546 13.1851 49.1852 13.7157 49.1852 14.3702C49.1852 15.0248 48.6546 15.5554 48 15.5554C32.2906 15.5554 19.5556 28.2904 19.5556 43.9999C19.5556 44.6544 19.0249 45.1851 18.3704 45.1851Z" fill="#E8AA0A"/>
<path fill-rule="evenodd" clip-rule="evenodd" d="M77.6296 42.8145C78.2842 42.8145 78.8148 43.3451 78.8148 43.9996C78.8148 61.0182 65.0186 74.8145 48 74.8145C47.3454 74.8145 46.8148 74.2838 46.8148 73.6293C46.8148 72.9747 47.3454 72.4441 48 72.4441C63.7094 72.4441 76.4444 59.7091 76.4444 43.9996C76.4444 43.3451 76.9751 42.8145 77.6296 42.8145Z" fill="#E8AA0A"/>
<path d="M71.7037 43.9996C71.7037 57.0908 61.0912 67.7033 48 67.7033C34.9088 67.7033 24.2963 57.0908 24.2963 43.9996C24.2963 30.9084 34.9088 20.2959 48 20.2959C61.0912 20.2959 71.7037 30.9084 71.7037 43.9996Z" fill="#FFDD28"/>
<path fill-rule="evenodd" clip-rule="evenodd" d="M74.0741 43.9999C74.0741 58.4002 62.4003 70.0739 48 70.0739C33.5997 70.0739 21.9259 58.4002 21.9259 43.9999C21.9259 29.5995 33.5997 17.9258 48 17.9258C62.4003 17.9258 74.0741 29.5995 74.0741 43.9999ZM48 67.7036C61.0912 67.7036 71.7037 57.091 71.7037 43.9999C71.7037 30.9087 61.0912 20.2962 48 20.2962C34.9088 20.2962 24.2963 30.9087 24.2963 43.9999C24.2963 57.091 34.9088 67.7036 48 67.7036Z" fill="#E89B05"/>
<path fill-rule="evenodd" clip-rule="evenodd" d="M48 64.1477C59.1276 64.1477 68.1482 55.1271 68.1482 43.9995C68.1482 43.345 68.6788 42.8144 69.3334 42.8144C69.9879 42.8144 70.5186 43.345 70.5186 43.9995C70.5186 56.4362 60.4367 66.5181 48 66.5181C47.3455 66.5181 46.8148 65.9874 46.8148 65.3329C46.8149 64.6783 47.3455 64.1477 48 64.1477Z" fill="#ECC704"/>
<path fill-rule="evenodd" clip-rule="evenodd" d="M48 23.8518C36.8724 23.8518 27.8518 32.8724 27.8518 44C27.8518 44.6545 27.3212 45.1852 26.6666 45.1852C26.0121 45.1852 25.4814 44.6545 25.4814 44C25.4814 31.5633 35.5633 21.4814 48 21.4814C48.6545 21.4814 49.1852 22.0121 49.1852 22.6666C49.1852 23.3212 48.6545 23.8518 48 23.8518Z" fill="#FFEF9C"/>
<path d="M11.7767 75.5528L8.7239 69.4472C8.39145 68.7823 8.87494 68 9.61832 68L23.0003 68C23.5526 68 24.0003 68.4477 24.0003 69L24.0003 83C24.0003 83.5523 23.5526 84 23.0003 84L9.61832 84C8.87494 84 8.39145 83.2177 8.7239 82.5528L11.7767 76.4472C11.9174 76.1657 11.9174 75.8343 11.7767 75.5528Z" fill="#C52229"/>
<path d="M84.2239 75.5528L87.2767 69.4472C87.6091 68.7823 87.1256 68 86.3823 68L73.0003 68C72.448 68 72.0003 68.4477 72.0003 69L72.0003 83C72.0003 83.5523 72.448 84 73.0003 84L86.3823 84C87.1256 84 87.6091 83.2177 87.2767 82.5528L84.2239 76.4472C84.0831 76.1657 84.0831 75.8343 84.2239 75.5528Z" fill="#C52229"/>
<path fill-rule="evenodd" clip-rule="evenodd" d="M9.76421 76L6.93503 70.3416C5.93768 68.347 7.38815 66 9.61831 66L23.0003 66C24.6571 66 26.0003 67.3431 26.0003 69L26.0003 83C26.0003 84.6569 24.6571 86 23.0003 86L9.61831 86C7.38814 86 5.93768 83.653 6.93503 81.6584L9.76421 76ZM9.98724 76.4461C9.98743 76.4465 9.98762 76.4468 9.98782 76.4472L10.8823 76L9.98781 76.4472L9.98724 76.4461ZM86.2363 76L89.0655 70.3416C90.0629 68.3469 88.6124 66 86.3822 66L73.0003 66C71.3434 66 70.0003 67.3431 70.0003 69L70.0003 83C70.0003 84.6569 71.3434 86 73.0003 86L86.3822 86C88.6124 86 90.0629 83.6531 89.0655 81.6584L86.2363 76ZM87.2767 69.4472L84.2239 75.5528C84.0831 75.8343 84.0831 76.1657 84.2239 76.4472L87.2767 82.5528C87.6091 83.2177 87.1256 84 86.3822 84L73.0003 84C72.448 84 72.0003 83.5523 72.0003 83L72.0003 69C72.0003 68.4477 72.448 68 73.0003 68L86.3822 68C87.1256 68 87.6091 68.7823 87.2767 69.4472ZM8.72388 69.4472L11.7767 75.5528C11.9174 75.8343 11.9174 76.1657 11.7767 76.4472L8.72388 82.5528C8.39143 83.2177 8.87492 84 9.61831 84L23.0003 84C23.5526 84 24.0003 83.5523 24.0003 83L24.0003 69C24.0003 68.4477 23.5526 68 23.0003 68L9.61831 68C8.87492 68 8.39143 68.7823 8.72388 69.4472Z" fill="#9B0F15"/>
<path fill-rule="evenodd" clip-rule="evenodd" d="M10.1542 68.9043C10.3374 68.6138 10.6568 68.4375 11.0002 68.4375H15.2502C15.8025 68.4375 16.2502 68.8852 16.2502 69.4375C16.2502 69.9898 15.8025 70.4375 15.2502 70.4375H12.587L14.6524 74.756C14.8907 75.2543 14.6799 75.8513 14.1817 76.0896C13.6835 76.3279 13.0864 76.1172 12.8481 75.619L10.0981 69.869C9.94992 69.5591 9.97112 69.1949 10.1542 68.9043Z" fill="#DF3840"/>
<path d="M76.0002 79L76.0002 65C76.0002 64.4477 75.5525 64 75.0002 64L21.0002 64C20.448 64 20.0002 64.4477 20.0002 65L20.0002 79C20.0002 79.5523 20.448 80 21.0002 80L75.0002 80C75.5525 80 76.0002 79.5523 76.0002 79Z" fill="#F1333B"/>
<path fill-rule="evenodd" clip-rule="evenodd" d="M78.0002 65L78.0002 79C78.0002 80.6569 76.6571 82 75.0002 82L21.0002 82C19.3434 82 18.0002 80.6569 18.0002 79L18.0002 65C18.0002 63.3431 19.3434 62 21.0002 62L75.0002 62C76.6571 62 78.0002 63.3431 78.0002 65ZM76.0002 65L76.0002 79C76.0002 79.5523 75.5525 80 75.0002 80L21.0002 80C20.448 80 20.0002 79.5523 20.0002 79L20.0002 65C20.0002 64.4477 20.448 64 21.0002 64L75.0002 64C75.5525 64 76.0002 64.4477 76.0002 65Z" fill="#9B0F15"/>
<path d="M73.2375 72.3795C72.6712 72.3795 72.2122 71.9317 72.2122 71.3792C72.2122 70.8268 72.6712 70.3789 73.2375 70.3789C73.8038 70.3789 74.2628 70.8268 74.2628 71.3792C74.2628 71.9317 73.8038 72.3795 73.2375 72.3795Z" fill="#DB1B24"/>
<path d="M69.3364 71.9798C68.6321 71.9798 68.061 71.4227 68.061 70.7355C68.061 70.0483 68.6321 69.4912 69.3364 69.4912C70.0408 69.4912 70.6118 70.0483 70.6118 70.7355C70.6118 71.4227 70.0408 71.9798 69.3364 71.9798Z" fill="#DB1B24"/>
<path d="M71.0743 74.8244C70.7222 74.8244 70.4367 74.5458 70.4367 74.2022C70.4367 73.8586 70.7222 73.5801 71.0743 73.5801C71.4265 73.5801 71.712 73.8586 71.712 74.2022C71.712 74.5458 71.4265 74.8244 71.0743 74.8244Z" fill="#DB1B24"/>
<path d="M69.9741 68.2443C69.6219 68.2443 69.3364 67.9657 69.3364 67.6221C69.3364 67.2785 69.6219 67 69.9741 67C70.3263 67 70.6118 67.2785 70.6118 67.6221C70.6118 67.9657 70.3263 68.2443 69.9741 68.2443Z" fill="#DB1B24"/>
<path d="M66.623 74.2023C66.2709 74.2023 65.9854 73.9237 65.9854 73.5801C65.9854 73.2365 66.2709 72.958 66.6231 72.958C66.9752 72.958 67.2607 73.2365 67.2607 73.5801C67.2607 73.9237 66.9752 74.2023 66.623 74.2023Z" fill="#DB1B24"/>
<path d="M65.9854 71.0011C65.6332 71.0011 65.3477 70.7226 65.3477 70.379C65.3477 70.0354 65.6332 69.7568 65.9854 69.7568C66.3375 69.7568 66.623 70.0354 66.623 70.379C66.623 70.7226 66.3375 71.0011 65.9854 71.0011Z" fill="#DB1B24"/>
<path d="M61.6379 78.2179C61.2858 78.2179 61.0003 77.9394 61.0003 77.5958C61.0003 77.2522 61.2858 76.9736 61.6379 76.9736C61.9901 76.9736 62.2756 77.2522 62.2756 77.5958C62.2756 77.9394 61.9901 78.2179 61.6379 78.2179Z" fill="#DB1B24"/>
<path d="M74.3254 75.8429C73.9733 75.8429 73.6878 75.5644 73.6878 75.2208C73.6878 74.8772 73.9733 74.5986 74.3254 74.5986C74.6776 74.5986 74.9631 74.8772 74.9631 75.2208C74.9631 75.5644 74.6776 75.8429 74.3254 75.8429Z" fill="#DB1B24"/>
<path d="M68.2986 77.2057C67.7254 77.2057 67.2608 76.7524 67.2608 76.1932C67.2608 75.634 67.7254 75.1807 68.2986 75.1807C68.8718 75.1807 69.3364 75.634 69.3364 76.1932C69.3364 76.7524 68.8718 77.2057 68.2986 77.2057Z" fill="#DB1B24"/>
<path d="M72.7499 78.2179C72.1767 78.2179 71.7121 77.7646 71.7121 77.2054C71.7121 76.6462 72.1767 76.1929 72.7499 76.1929C73.3231 76.1929 73.7877 76.6462 73.7877 77.2054C73.7877 77.7646 73.3231 78.2179 72.7499 78.2179Z" fill="#DB1B24"/>
<path d="M63.6721 76.2271C63.099 76.2271 62.6343 75.7738 62.6343 75.2146C62.6343 74.6555 63.099 74.2021 63.6721 74.2021C64.2453 74.2021 64.71 74.6555 64.71 75.2146C64.71 75.7738 64.2453 76.2271 63.6721 76.2271Z" fill="#DB1B24"/>
<path d="M65.3477 78.5255C64.9955 78.5255 64.71 78.247 64.71 77.9034C64.71 77.5598 64.9955 77.2812 65.3477 77.2812C65.6998 77.2812 65.9854 77.5598 65.9854 77.9034C65.9854 78.247 65.6998 78.5255 65.3477 78.5255Z" fill="#DB1B24"/>
<path fill-rule="evenodd" clip-rule="evenodd" d="M20.6252 65.4375C20.6252 64.8852 21.073 64.4375 21.6252 64.4375H59.1252C59.6775 64.4375 60.1252 64.8852 60.1252 65.4375C60.1252 65.9898 59.6775 66.4375 59.1252 66.4375H22.6252V73.4375C22.6252 73.9898 22.1775 74.4375 21.6252 74.4375C21.073 74.4375 20.6252 73.9898 20.6252 73.4375V65.4375Z" fill="#FE666D"/>
<path d="M40.7496 35V29.1818H41.8036V31.6449H44.4996V29.1818H45.5565V35H44.4996V32.5284H41.8036V35H40.7496ZM47.913 35.0881C47.6365 35.0881 47.3874 35.0388 47.1658 34.9403C46.9461 34.84 46.7719 34.6922 46.6431 34.4972C46.5162 34.3021 46.4528 34.0616 46.4528 33.7756C46.4528 33.5294 46.4982 33.3258 46.5891 33.1648C46.68 33.0038 46.8041 32.875 46.9613 32.7784C47.1185 32.6818 47.2956 32.6089 47.4925 32.5597C47.6914 32.5085 47.8969 32.4716 48.109 32.4489C48.3647 32.4223 48.5721 32.3987 48.7312 32.3778C48.8903 32.3551 49.0058 32.321 49.0778 32.2756C49.1516 32.2282 49.1886 32.1553 49.1886 32.0568V32.0398C49.1886 31.8258 49.1251 31.66 48.9982 31.5426C48.8713 31.4252 48.6886 31.3665 48.4499 31.3665C48.198 31.3665 47.9982 31.4214 47.8505 31.5312C47.7047 31.6411 47.6062 31.7708 47.555 31.9205L46.5948 31.7841C46.6706 31.5189 46.7956 31.2973 46.9698 31.1193C47.1441 30.9394 47.3571 30.8049 47.609 30.7159C47.8609 30.625 48.1393 30.5795 48.4442 30.5795C48.6545 30.5795 48.8638 30.6042 49.0721 30.6534C49.2804 30.7027 49.4708 30.7841 49.6431 30.8977C49.8155 31.0095 49.9537 31.1619 50.0579 31.3551C50.1639 31.5483 50.217 31.7898 50.217 32.0795V35H49.2283V34.4006H49.1942C49.1317 34.5218 49.0437 34.6354 48.93 34.7415C48.8183 34.8456 48.6772 34.9299 48.5067 34.9943C48.3382 35.0568 48.1403 35.0881 47.913 35.0881ZM48.18 34.3324C48.3865 34.3324 48.5655 34.2917 48.717 34.2102C48.8685 34.1269 48.985 34.017 49.0664 33.8807C49.1497 33.7443 49.1914 33.5956 49.1914 33.4347V32.9205C49.1592 32.947 49.1043 32.9716 49.0266 32.9943C48.9509 33.017 48.8656 33.0369 48.771 33.054C48.6763 33.071 48.5825 33.0862 48.4897 33.0994C48.3969 33.1127 48.3164 33.1241 48.2482 33.1335C48.0948 33.1544 47.9575 33.1884 47.8363 33.2358C47.7151 33.2831 47.6194 33.3494 47.5494 33.4347C47.4793 33.518 47.4442 33.6259 47.4442 33.7585C47.4442 33.9479 47.5134 34.0909 47.6516 34.1875C47.7899 34.2841 47.966 34.3324 48.18 34.3324ZM52.2795 29.1818V35H51.2511V29.1818H52.2795ZM55.5472 30.6364V31.4318H52.9677V30.6364H55.5472ZM53.6126 35V30.2244C53.6126 29.9309 53.6732 29.6866 53.7944 29.4915C53.9175 29.2964 54.0823 29.1506 54.2887 29.054C54.4951 28.9574 54.7243 28.9091 54.9762 28.9091C55.1542 28.9091 55.3124 28.9233 55.4506 28.9517C55.5889 28.9801 55.6912 29.0057 55.7575 29.0284L55.5529 29.8239C55.5094 29.8106 55.4544 29.7973 55.3881 29.7841C55.3219 29.7689 55.248 29.7614 55.1665 29.7614C54.9753 29.7614 54.8398 29.8078 54.7603 29.9006C54.6826 29.9915 54.6438 30.1222 54.6438 30.2926V35H53.6126ZM29.9176 39.1818H31.2074L32.9347 43.3977H33.0028L34.7301 39.1818H36.0199V45H35.0085V41.0028H34.9545L33.3466 44.983H32.5909L30.983 40.9943H30.929V45H29.9176V39.1818ZM38.3778 45.0881C38.1013 45.0881 37.8523 45.0388 37.6307 44.9403C37.411 44.84 37.2367 44.6922 37.108 44.4972C36.9811 44.3021 36.9176 44.0616 36.9176 43.7756C36.9176 43.5294 36.9631 43.3258 37.054 43.1648C37.1449 43.0038 37.2689 42.875 37.4261 42.7784C37.5833 42.6818 37.7604 42.6089 37.9574 42.5597C38.1563 42.5085 38.3617 42.4716 38.5739 42.4489C38.8295 42.4223 39.0369 42.3987 39.196 42.3778C39.3551 42.3551 39.4706 42.321 39.5426 42.2756C39.6165 42.2282 39.6534 42.1553 39.6534 42.0568V42.0398C39.6534 41.8258 39.59 41.66 39.4631 41.5426C39.3362 41.4252 39.1534 41.3665 38.9148 41.3665C38.6629 41.3665 38.4631 41.4214 38.3153 41.5312C38.1695 41.6411 38.071 41.7708 38.0199 41.9205L37.0597 41.7841C37.1354 41.5189 37.2604 41.2973 37.4347 41.1193C37.6089 40.9394 37.822 40.8049 38.0739 40.7159C38.3258 40.625 38.6042 40.5795 38.9091 40.5795C39.1193 40.5795 39.3286 40.6042 39.5369 40.6534C39.7453 40.7027 39.9356 40.7841 40.108 40.8977C40.2803 41.0095 40.4186 41.1619 40.5227 41.3551C40.6288 41.5483 40.6818 41.7898 40.6818 42.0795V45H39.6932V44.4006H39.6591C39.5966 44.5218 39.5085 44.6354 39.3949 44.7415C39.2831 44.8456 39.142 44.9299 38.9716 44.9943C38.803 45.0568 38.6051 45.0881 38.3778 45.0881ZM38.6449 44.3324C38.8513 44.3324 39.0303 44.2917 39.1818 44.2102C39.3333 44.1269 39.4498 44.017 39.5312 43.8807C39.6146 43.7443 39.6562 43.5956 39.6562 43.4347V42.9205C39.6241 42.947 39.5691 42.9716 39.4915 42.9943C39.4157 43.017 39.3305 43.0369 39.2358 43.054C39.1411 43.071 39.0473 43.0862 38.9545 43.0994C38.8617 43.1127 38.7813 43.1241 38.7131 43.1335C38.5597 43.1544 38.4223 43.1884 38.3011 43.2358C38.1799 43.2831 38.0843 43.3494 38.0142 43.4347C37.9441 43.518 37.9091 43.6259 37.9091 43.7585C37.9091 43.9479 37.9782 44.0909 38.1165 44.1875C38.2547 44.2841 38.4309 44.3324 38.6449 44.3324ZM41.7159 45V40.6364H42.7131V41.3636H42.7585C42.8381 41.1117 42.9744 40.9176 43.1676 40.7812C43.3627 40.643 43.5852 40.5739 43.8352 40.5739C43.892 40.5739 43.9555 40.5767 44.0256 40.5824C44.0975 40.5862 44.1572 40.5928 44.2045 40.6023V41.5483C44.161 41.5331 44.0919 41.5199 43.9972 41.5085C43.9044 41.4953 43.8144 41.4886 43.7273 41.4886C43.5398 41.4886 43.3712 41.5294 43.2216 41.6108C43.0739 41.6903 42.9574 41.8011 42.8722 41.9432C42.7869 42.0852 42.7443 42.2491 42.7443 42.4347V45H41.7159ZM46.0653 45.0881C45.7888 45.0881 45.5398 45.0388 45.3182 44.9403C45.0985 44.84 44.9242 44.6922 44.7955 44.4972C44.6686 44.3021 44.6051 44.0616 44.6051 43.7756C44.6051 43.5294 44.6506 43.3258 44.7415 43.1648C44.8324 43.0038 44.9564 42.875 45.1136 42.7784C45.2708 42.6818 45.4479 42.6089 45.6449 42.5597C45.8438 42.5085 46.0492 42.4716 46.2614 42.4489C46.517 42.4223 46.7244 42.3987 46.8835 42.3778C47.0426 42.3551 47.1581 42.321 47.2301 42.2756C47.304 42.2282 47.3409 42.1553 47.3409 42.0568V42.0398C47.3409 41.8258 47.2775 41.66 47.1506 41.5426C47.0237 41.4252 46.8409 41.3665 46.6023 41.3665C46.3504 41.3665 46.1506 41.4214 46.0028 41.5312C45.857 41.6411 45.7585 41.7708 45.7074 41.9205L44.7472 41.7841C44.8229 41.5189 44.9479 41.2973 45.1222 41.1193C45.2964 40.9394 45.5095 40.8049 45.7614 40.7159C46.0133 40.625 46.2917 40.5795 46.5966 40.5795C46.8068 40.5795 47.0161 40.6042 47.2244 40.6534C47.4328 40.7027 47.6231 40.7841 47.7955 40.8977C47.9678 41.0095 48.1061 41.1619 48.2102 41.3551C48.3163 41.5483 48.3693 41.7898 48.3693 42.0795V45H47.3807V44.4006H47.3466C47.2841 44.5218 47.196 44.6354 47.0824 44.7415C46.9706 44.8456 46.8295 44.9299 46.6591 44.9943C46.4905 45.0568 46.2926 45.0881 46.0653 45.0881ZM46.3324 44.3324C46.5388 44.3324 46.7178 44.2917 46.8693 44.2102C47.0208 44.1269 47.1373 44.017 47.2188 43.8807C47.3021 43.7443 47.3438 43.5956 47.3438 43.4347V42.9205C47.3116 42.947 47.2566 42.9716 47.179 42.9943C47.1032 43.017 47.018 43.0369 46.9233 43.054C46.8286 43.071 46.7348 43.0862 46.642 43.0994C46.5492 43.1127 46.4688 43.1241 46.4006 43.1335C46.2472 43.1544 46.1098 43.1884 45.9886 43.2358C45.8674 43.2831 45.7718 43.3494 45.7017 43.4347C45.6316 43.518 45.5966 43.6259 45.5966 43.7585C45.5966 43.9479 45.6657 44.0909 45.804 44.1875C45.9422 44.2841 46.1184 44.3324 46.3324 44.3324ZM51.5824 40.6364V41.4318H49.0739V40.6364H51.5824ZM49.6932 39.5909H50.7216V43.6875C50.7216 43.8258 50.7424 43.9318 50.7841 44.0057C50.8277 44.0777 50.8845 44.1269 50.9545 44.1534C51.0246 44.1799 51.1023 44.1932 51.1875 44.1932C51.2519 44.1932 51.3106 44.1884 51.3636 44.179C51.4186 44.1695 51.4602 44.161 51.4886 44.1534L51.6619 44.9574C51.607 44.9763 51.5284 44.9972 51.4261 45.0199C51.3258 45.0426 51.2027 45.0559 51.0568 45.0597C50.7992 45.0672 50.5672 45.0284 50.3608 44.9432C50.1544 44.8561 49.9905 44.7216 49.8693 44.5398C49.75 44.358 49.6913 44.1307 49.6932 43.858V39.5909ZM53.5646 42.4432V45H52.5362V39.1818H53.5419V41.3778H53.593C53.6953 41.1316 53.8535 40.9375 54.0675 40.7955C54.2834 40.6515 54.558 40.5795 54.8913 40.5795C55.1944 40.5795 55.4586 40.643 55.6839 40.7699C55.9093 40.8968 56.0836 41.0824 56.2067 41.3267C56.3317 41.571 56.3942 41.8693 56.3942 42.2216V45H55.3658V42.3807C55.3658 42.0871 55.29 41.8589 55.1385 41.696C54.9889 41.5312 54.7786 41.4489 54.5078 41.4489C54.326 41.4489 54.1631 41.4886 54.0192 41.5682C53.8771 41.6458 53.7654 41.7585 53.6839 41.9062C53.6044 42.054 53.5646 42.233 53.5646 42.4432ZM59.3459 45.0852C58.9197 45.0852 58.5504 44.9915 58.2379 44.804C57.9254 44.6165 57.683 44.3542 57.5107 44.017C57.3402 43.6799 57.255 43.286 57.255 42.8352C57.255 42.3845 57.3402 41.9896 57.5107 41.6506C57.683 41.3116 57.9254 41.0483 58.2379 40.8608C58.5504 40.6733 58.9197 40.5795 59.3459 40.5795C59.772 40.5795 60.1413 40.6733 60.4538 40.8608C60.7663 41.0483 61.0078 41.3116 61.1783 41.6506C61.3506 41.9896 61.4368 42.3845 61.4368 42.8352C61.4368 43.286 61.3506 43.6799 61.1783 44.017C61.0078 44.3542 60.7663 44.6165 60.4538 44.804C60.1413 44.9915 59.772 45.0852 59.3459 45.0852ZM59.3516 44.2614C59.5826 44.2614 59.7758 44.1979 59.9311 44.071C60.0864 43.9422 60.2019 43.7699 60.2777 43.554C60.3554 43.3381 60.3942 43.0975 60.3942 42.8324C60.3942 42.5653 60.3554 42.3239 60.2777 42.108C60.2019 41.8902 60.0864 41.7169 59.9311 41.5881C59.7758 41.4593 59.5826 41.3949 59.3516 41.3949C59.1148 41.3949 58.9179 41.4593 58.7607 41.5881C58.6054 41.7169 58.4889 41.8902 58.4112 42.108C58.3355 42.3239 58.2976 42.5653 58.2976 42.8324C58.2976 43.0975 58.3355 43.3381 58.4112 43.554C58.4889 43.7699 58.6054 43.9422 58.7607 44.071C58.9179 44.1979 59.1148 44.2614 59.3516 44.2614ZM63.3381 42.4432V45H62.3097V40.6364H63.2926V41.3778H63.3438C63.4441 41.1335 63.6042 40.9394 63.8239 40.7955C64.0455 40.6515 64.3191 40.5795 64.6449 40.5795C64.946 40.5795 65.2083 40.6439 65.4318 40.7727C65.6572 40.9015 65.8314 41.0881 65.9545 41.3324C66.0795 41.5767 66.1411 41.8731 66.1392 42.2216V45H65.1108V42.3807C65.1108 42.089 65.035 41.8608 64.8835 41.696C64.7339 41.5312 64.5265 41.4489 64.2614 41.4489C64.0814 41.4489 63.9214 41.4886 63.7812 41.5682C63.643 41.6458 63.5341 41.7585 63.4545 41.9062C63.3769 42.054 63.3381 42.233 63.3381 42.4432ZM37.2514 55V54.2386L39.2713 52.2585C39.4645 52.0634 39.6255 51.8902 39.7543 51.7386C39.883 51.5871 39.9796 51.4403 40.044 51.2983C40.1084 51.1562 40.1406 51.0047 40.1406 50.8438C40.1406 50.66 40.099 50.5028 40.0156 50.3722C39.9323 50.2396 39.8177 50.1373 39.6719 50.0653C39.526 49.9934 39.3603 49.9574 39.1747 49.9574C38.9834 49.9574 38.8158 49.9972 38.6719 50.0767C38.5279 50.1544 38.4162 50.2652 38.3366 50.4091C38.259 50.553 38.2202 50.7244 38.2202 50.9233H37.2173C37.2173 50.554 37.3016 50.233 37.4702 49.9602C37.6387 49.6875 37.8707 49.4763 38.1662 49.3267C38.4635 49.1771 38.8045 49.1023 39.1889 49.1023C39.5791 49.1023 39.9219 49.1752 40.2173 49.321C40.5128 49.4669 40.742 49.6667 40.9048 49.9205C41.0696 50.1742 41.152 50.464 41.152 50.7898C41.152 51.0076 41.1103 51.2216 41.027 51.4318C40.9437 51.642 40.7969 51.875 40.5866 52.1307C40.3783 52.3864 40.0857 52.696 39.7088 53.0597L38.706 54.0795V54.1193H41.2401V55H37.2514ZM44.5866 49.1818V55H43.5327V50.2074H43.4986L42.1378 51.0767V50.1108L43.5838 49.1818H44.5866ZM48.9972 53.6307L48.9943 52.3892H49.1591L50.7273 50.6364H51.929L50 52.7841H49.7869L48.9972 53.6307ZM48.0597 55V49.1818H49.0881V55H48.0597ZM50.7983 55L49.3778 53.0142L50.071 52.2898L52.0284 55H50.7983ZM52.6143 55V50.6364H53.5973V51.3778H53.6484C53.7393 51.1278 53.8899 50.9328 54.1001 50.7926C54.3104 50.6506 54.5613 50.5795 54.853 50.5795C55.1484 50.5795 55.3975 50.6515 55.6001 50.7955C55.8047 50.9375 55.9486 51.1316 56.032 51.3778H56.0774C56.174 51.1354 56.3369 50.9422 56.5661 50.7983C56.7971 50.6525 57.0708 50.5795 57.3871 50.5795C57.7886 50.5795 58.1162 50.7064 58.37 50.9602C58.6238 51.214 58.7507 51.5843 58.7507 52.071V55H57.7195V52.2301C57.7195 51.9593 57.6475 51.7614 57.5036 51.6364C57.3596 51.5095 57.1835 51.446 56.9751 51.446C56.727 51.446 56.5329 51.5237 56.3928 51.679C56.2545 51.8324 56.1854 52.0322 56.1854 52.2784V55H55.1768V52.1875C55.1768 51.9621 55.1087 51.7822 54.9723 51.6477C54.8378 51.5133 54.6617 51.446 54.4439 51.446C54.2962 51.446 54.1617 51.4839 54.0405 51.5597C53.9193 51.6335 53.8227 51.7386 53.7507 51.875C53.6787 52.0095 53.6428 52.1667 53.6428 52.3466V55H52.6143Z" fill="#BC7C00"/>
<path d="M42.2512 69.9091V75H41.4806V70.6797H41.4508L40.2328 71.4751V70.7393L41.503 69.9091H42.2512ZM44.3816 72.733V75H43.6383V69.9091H44.3716V71.8033H44.4189C44.5083 71.5978 44.6451 71.4345 44.829 71.3136C45.013 71.1926 45.2533 71.1321 45.5499 71.1321C45.8117 71.1321 46.0404 71.186 46.236 71.2937C46.4332 71.4014 46.5856 71.5621 46.6934 71.7759C46.8027 71.988 46.8574 72.2532 46.8574 72.5714V75H46.1142V72.6609C46.1142 72.3808 46.0421 72.1637 45.8979 72.0096C45.7537 71.8538 45.5532 71.7759 45.2963 71.7759C45.1207 71.7759 44.9632 71.8132 44.824 71.8878C44.6865 71.9624 44.5779 72.0717 44.4984 72.2159C44.4205 72.3584 44.3816 72.5308 44.3816 72.733ZM47.7324 74.0057V73.3842L49.9324 69.9091H50.4221V70.8239H50.1113L48.5378 73.3146V73.3544H51.5531V74.0057H47.7324ZM50.1461 75V73.8168L50.1511 73.5334V69.9091H50.8794V75H50.1461ZM54.2825 69.9091V75H53.5119V70.6797H53.4821L52.264 71.4751V70.7393L53.5343 69.9091H54.2825Z" fill="#E1E1E1"/>
<path d="M55.9272 18.0601L56.1215 17.5231L58.0513 16.6421C58.2373 16.5538 58.3951 16.4727 58.5246 16.3987C58.6541 16.3247 58.7596 16.2458 58.8413 16.1621C58.923 16.0783 58.9843 15.9797 59.0254 15.8662C59.0723 15.7366 59.083 15.6151 59.0576 15.5017C59.0327 15.3869 58.9779 15.2855 58.8935 15.1976C58.809 15.1096 58.7013 15.0419 58.5704 14.9946C58.4355 14.9458 58.3071 14.931 58.1853 14.9504C58.064 14.9684 57.9569 15.0181 57.8641 15.0993C57.7726 15.181 57.7015 15.2919 57.6507 15.4322L56.9435 15.1763C57.0377 14.9158 57.1791 14.7109 57.3675 14.5616C57.556 14.4123 57.7735 14.3225 58.0201 14.2924C58.268 14.2628 58.5275 14.297 58.7986 14.3951C59.0738 14.4947 59.2969 14.6336 59.4681 14.8118C59.6392 14.9901 59.7499 15.1895 59.8 15.41C59.8514 15.6311 59.8356 15.8564 59.7525 16.0862C59.6969 16.2398 59.6129 16.3801 59.5005 16.5071C59.388 16.6341 59.2251 16.7609 59.0116 16.8876C58.7994 17.0148 58.514 17.1585 58.1554 17.3187L57.1879 17.7821L57.1777 17.8102L58.9649 18.4568L58.7402 19.0779L55.9272 18.0601Z" fill="#FFEF9C"/>
<path d="M64.9009 22.8447C64.6295 22.6223 64.4529 22.3628 64.371 22.0661C64.2911 21.7692 64.3056 21.4478 64.4146 21.1019C64.5256 20.7558 64.7319 20.3987 65.0336 20.0306C65.3363 19.6635 65.6451 19.3931 65.9599 19.2196C66.2768 19.0458 66.5877 18.9701 66.8927 18.9923C67.1988 19.0154 67.487 19.1378 67.7573 19.3592C68.0276 19.5807 68.2041 19.8393 68.2869 20.1349C68.3697 20.4305 68.3565 20.7502 68.2473 21.0941C68.1392 21.439 67.9348 21.7948 67.6341 22.1618C67.3316 22.5309 67.021 22.8035 66.7023 22.9794C66.3857 23.1552 66.0738 23.232 65.7668 23.21C65.4609 23.1889 65.1723 23.0671 64.9009 22.8447ZM65.3236 22.3289C65.5346 22.5018 65.7861 22.5344 66.0782 22.4267C66.3723 22.3188 66.6855 22.0621 67.0177 21.6567C67.2374 21.3886 67.394 21.1404 67.4874 20.9121C67.5808 20.6838 67.6143 20.4817 67.5877 20.3057C67.5621 20.1286 67.4795 19.9828 67.34 19.8685C67.1301 19.6965 66.8787 19.6649 66.5857 19.7737C66.2936 19.8814 65.9822 20.1359 65.6516 20.5371C65.4299 20.8054 65.2713 21.0537 65.1759 21.2822C65.0816 21.5116 65.0472 21.7149 65.0729 21.892C65.0994 22.068 65.183 22.2137 65.3236 22.3289Z" fill="#FFEF9C"/>
<path d="M70.4562 28.5789L70.9446 28.2829L72.9998 28.8087C73.2 28.8567 73.3738 28.8926 73.521 28.9163C73.6683 28.94 73.7999 28.9449 73.9161 28.931C74.0322 28.917 74.1419 28.8788 74.2452 28.8162C74.363 28.7448 74.4476 28.6569 74.499 28.5527C74.5517 28.4477 74.5727 28.3345 74.5622 28.2129C74.5517 28.0914 74.5103 27.9712 74.4382 27.8521C74.3638 27.7294 74.2731 27.6374 74.1661 27.576C74.0604 27.5139 73.9459 27.4853 73.8226 27.4902C73.7001 27.4964 73.5751 27.5381 73.4475 27.6154L73.0577 26.9722C73.2946 26.8286 73.5332 26.7579 73.7737 26.76C74.0141 26.762 74.2398 26.8287 74.4506 26.9601C74.6621 27.0926 74.8427 27.2822 74.9921 27.5288C75.1438 27.779 75.2303 28.0272 75.2516 28.2734C75.273 28.5196 75.2339 28.7443 75.1344 28.9474C75.0357 29.1517 74.8819 29.3172 74.673 29.4439C74.5333 29.5286 74.3798 29.585 74.2126 29.6133C74.0454 29.6416 73.8389 29.638 73.5932 29.6026C73.3482 29.5684 73.0358 29.5011 72.6561 29.4007L71.6121 29.154L71.5866 29.1695L72.5717 30.7948L72.0069 31.1372L70.4562 28.5789Z" fill="#FFEF9C"/>
<path d="M74.4393 37.8598C74.3764 37.5828 74.372 37.3231 74.4261 37.0806C74.4817 36.8378 74.5862 36.6313 74.7398 36.4609C74.8937 36.2919 75.0874 36.1765 75.321 36.1147L75.491 36.8627C75.3196 36.9162 75.1941 37.0241 75.1144 37.1864C75.0361 37.3484 75.0189 37.5257 75.0626 37.7182C75.0969 37.8692 75.1621 37.9957 75.2581 38.0977C75.3541 38.1997 75.4715 38.2706 75.6102 38.3105C75.7489 38.3503 75.897 38.3516 76.0546 38.3144C76.2156 38.2792 76.3506 38.2129 76.4595 38.1153C76.5684 38.0177 76.6445 37.9006 76.6878 37.7641C76.7324 37.6272 76.7369 37.4805 76.7014 37.324C76.6738 37.1962 76.6218 37.0762 76.5453 36.964C76.4688 36.8517 76.3829 36.7685 76.2876 36.7145L76.2437 35.9924L78.4883 35.7162L79.0491 38.1845L78.4051 38.3309L77.9891 36.5004L76.8331 36.6342L76.8387 36.6591C76.9495 36.717 77.0517 36.811 77.1454 36.9412C77.2404 37.0711 77.3075 37.222 77.3465 37.3937C77.405 37.6514 77.3963 37.8951 77.3204 38.1251C77.2459 38.3547 77.1158 38.5517 76.9303 38.7162C76.7449 38.8808 76.5157 38.994 76.2428 39.056C75.9616 39.1199 75.6961 39.1118 75.4463 39.0316C75.1982 38.9525 74.985 38.8123 74.8067 38.611C74.6301 38.4108 74.5076 38.1604 74.4393 37.8598Z" fill="#FFEF9C"/>
</svg>
