<svg width="96" height="96" viewBox="0 0 96 96" fill="none" xmlns="http://www.w3.org/2000/svg">
    <path d="M80 44C80 61.6731 65.6731 76 48 76C30.3269 76 16 61.6731 16 44C16 26.3269 30.3269 12 48 12C65.6731 12 80 26.3269 80 44Z" fill="#FFBB0D"/>
    <path fill-rule="evenodd" clip-rule="evenodd" d="M82.3704 43.9998C82.3704 62.982 66.9822 78.3701 48 78.3701C29.0178 78.3701 13.6296 62.982 13.6296 43.9998C13.6296 25.0175 29.0178 9.62939 48 9.62939C66.9822 9.62939 82.3704 25.0175 82.3704 43.9998ZM48 75.9998C65.6731 75.9998 80 61.6729 80 43.9998C80 26.3267 65.6731 11.9998 48 11.9998C30.3269 11.9998 16 26.3267 16 43.9998C16 61.6729 30.3269 75.9998 48 75.9998Z" fill="#E89B05"/>
    <path fill-rule="evenodd" clip-rule="evenodd" d="M18.3704 45.1851C17.7158 45.1851 17.1852 44.6544 17.1852 43.9999C17.1852 26.9813 30.9814 13.1851 48 13.1851C48.6546 13.1851 49.1852 13.7157 49.1852 14.3702C49.1852 15.0248 48.6546 15.5554 48 15.5554C32.2906 15.5554 19.5556 28.2904 19.5556 43.9999C19.5556 44.6544 19.0249 45.1851 18.3704 45.1851Z" fill="#E8AA0A"/>
    <path fill-rule="evenodd" clip-rule="evenodd" d="M77.6296 42.8145C78.2842 42.8145 78.8148 43.3451 78.8148 43.9996C78.8148 61.0182 65.0186 74.8145 48 74.8145C47.3454 74.8145 46.8148 74.2838 46.8148 73.6293C46.8148 72.9747 47.3454 72.4441 48 72.4441C63.7094 72.4441 76.4444 59.7091 76.4444 43.9996C76.4444 43.3451 76.9751 42.8145 77.6296 42.8145Z" fill="#E8AA0A"/>
    <path d="M71.7037 43.9996C71.7037 57.0908 61.0912 67.7033 48 67.7033C34.9088 67.7033 24.2963 57.0908 24.2963 43.9996C24.2963 30.9084 34.9088 20.2959 48 20.2959C61.0912 20.2959 71.7037 30.9084 71.7037 43.9996Z" fill="#FFDD28"/>
    <path fill-rule="evenodd" clip-rule="evenodd" d="M74.0741 43.9999C74.0741 58.4002 62.4003 70.0739 48 70.0739C33.5997 70.0739 21.9259 58.4002 21.9259 43.9999C21.9259 29.5995 33.5997 17.9258 48 17.9258C62.4003 17.9258 74.0741 29.5995 74.0741 43.9999ZM48 67.7036C61.0912 67.7036 71.7037 57.091 71.7037 43.9999C71.7037 30.9087 61.0912 20.2962 48 20.2962C34.9088 20.2962 24.2963 30.9087 24.2963 43.9999C24.2963 57.091 34.9088 67.7036 48 67.7036Z" fill="#E89B05"/>
    <path fill-rule="evenodd" clip-rule="evenodd" d="M48 64.1477C59.1276 64.1477 68.1482 55.1271 68.1482 43.9995C68.1482 43.345 68.6788 42.8144 69.3334 42.8144C69.9879 42.8144 70.5186 43.345 70.5186 43.9995C70.5186 56.4362 60.4367 66.5181 48 66.5181C47.3455 66.5181 46.8149 65.9874 46.8149 65.3329C46.8149 64.6783 47.3455 64.1477 48 64.1477Z" fill="#ECC704"/>
    <path fill-rule="evenodd" clip-rule="evenodd" d="M48 23.8518C36.8724 23.8518 27.8518 32.8724 27.8518 44C27.8518 44.6545 27.3212 45.1851 26.6666 45.1851C26.0121 45.1851 25.4814 44.6545 25.4814 44C25.4814 31.5633 35.5633 21.4814 48 21.4814C48.6545 21.4814 49.1851 22.0121 49.1851 22.6666C49.1851 23.3212 48.6545 23.8518 48 23.8518Z" fill="#FFEF9C"/>
    <path d="M11.7767 75.5528L8.7239 69.4472C8.39145 68.7823 8.87494 68 9.61832 68L23.0003 68C23.5526 68 24.0003 68.4477 24.0003 69L24.0003 83C24.0003 83.5523 23.5526 84 23.0003 84L9.61832 84C8.87494 84 8.39145 83.2177 8.7239 82.5528L11.7767 76.4472C11.9174 76.1657 11.9174 75.8343 11.7767 75.5528Z" fill="#C52229"/>
    <path d="M84.2239 75.5528L87.2767 69.4472C87.6091 68.7823 87.1256 68 86.3823 68L73.0003 68C72.448 68 72.0003 68.4477 72.0003 69L72.0003 83C72.0003 83.5523 72.448 84 73.0003 84L86.3823 84C87.1256 84 87.6091 83.2177 87.2767 82.5528L84.2239 76.4472C84.0831 76.1657 84.0831 75.8343 84.2239 75.5528Z" fill="#C52229"/>
    <path fill-rule="evenodd" clip-rule="evenodd" d="M9.76421 76L6.93503 70.3416C5.93768 68.347 7.38815 66 9.61831 66L23.0003 66C24.6571 66 26.0003 67.3431 26.0003 69L26.0003 83C26.0003 84.6569 24.6571 86 23.0003 86L9.61831 86C7.38814 86 5.93768 83.653 6.93503 81.6584L9.76421 76ZM9.98724 76.4461C9.98743 76.4465 9.98762 76.4468 9.98782 76.4472L10.8823 76L9.98781 76.4472L9.98724 76.4461ZM86.2363 76L89.0655 70.3416C90.0629 68.3469 88.6124 66 86.3822 66L73.0003 66C71.3434 66 70.0003 67.3431 70.0003 69L70.0003 83C70.0003 84.6569 71.3434 86 73.0003 86L86.3822 86C88.6124 86 90.0629 83.6531 89.0655 81.6584L86.2363 76ZM87.2767 69.4472L84.2239 75.5528C84.0831 75.8343 84.0831 76.1657 84.2239 76.4472L87.2767 82.5528C87.6091 83.2177 87.1256 84 86.3822 84L73.0003 84C72.448 84 72.0003 83.5523 72.0003 83L72.0003 69C72.0003 68.4477 72.448 68 73.0003 68L86.3822 68C87.1256 68 87.6091 68.7823 87.2767 69.4472ZM8.72388 69.4472L11.7767 75.5528C11.9174 75.8343 11.9174 76.1657 11.7767 76.4472L8.72388 82.5528C8.39143 83.2177 8.87492 84 9.61831 84L23.0003 84C23.5526 84 24.0003 83.5523 24.0003 83L24.0003 69C24.0003 68.4477 23.5526 68 23.0003 68L9.61831 68C8.87492 68 8.39143 68.7823 8.72388 69.4472Z" fill="#9B0F15"/>
    <path fill-rule="evenodd" clip-rule="evenodd" d="M10.1542 68.9043C10.3374 68.6138 10.6568 68.4375 11.0002 68.4375H15.2502C15.8025 68.4375 16.2502 68.8852 16.2502 69.4375C16.2502 69.9898 15.8025 70.4375 15.2502 70.4375H12.587L14.6524 74.756C14.8907 75.2543 14.6799 75.8513 14.1817 76.0896C13.6835 76.3279 13.0864 76.1172 12.8481 75.619L10.0981 69.869C9.94992 69.5591 9.97112 69.1949 10.1542 68.9043Z" fill="#DF3840"/>
    <path d="M76.0002 79L76.0002 65C76.0002 64.4477 75.5525 64 75.0002 64L21.0002 64C20.448 64 20.0002 64.4477 20.0002 65L20.0002 79C20.0002 79.5523 20.448 80 21.0002 80L75.0002 80C75.5525 80 76.0002 79.5523 76.0002 79Z" fill="#F1333B"/>
    <path fill-rule="evenodd" clip-rule="evenodd" d="M78.0002 65L78.0002 79C78.0002 80.6569 76.6571 82 75.0002 82L21.0002 82C19.3434 82 18.0002 80.6569 18.0002 79L18.0002 65C18.0002 63.3431 19.3434 62 21.0002 62L75.0002 62C76.6571 62 78.0002 63.3431 78.0002 65ZM76.0002 65L76.0002 79C76.0002 79.5523 75.5525 80 75.0002 80L21.0002 80C20.448 80 20.0002 79.5523 20.0002 79L20.0002 65C20.0002 64.4477 20.448 64 21.0002 64L75.0002 64C75.5525 64 76.0002 64.4477 76.0002 65Z" fill="#9B0F15"/>
    <path d="M73.2375 72.3795C72.6712 72.3795 72.2122 71.9317 72.2122 71.3792C72.2122 70.8268 72.6712 70.3789 73.2375 70.3789C73.8038 70.3789 74.2628 70.8268 74.2628 71.3792C74.2628 71.9317 73.8038 72.3795 73.2375 72.3795Z" fill="#DB1B24"/>
    <path d="M69.3364 71.9798C68.6321 71.9798 68.061 71.4227 68.061 70.7355C68.061 70.0483 68.6321 69.4912 69.3364 69.4912C70.0408 69.4912 70.6118 70.0483 70.6118 70.7355C70.6118 71.4227 70.0408 71.9798 69.3364 71.9798Z" fill="#DB1B24"/>
    <path d="M71.0743 74.8244C70.7222 74.8244 70.4367 74.5458 70.4367 74.2022C70.4367 73.8586 70.7222 73.5801 71.0743 73.5801C71.4265 73.5801 71.712 73.8586 71.712 74.2022C71.712 74.5458 71.4265 74.8244 71.0743 74.8244Z" fill="#DB1B24"/>
    <path d="M69.9741 68.2443C69.6219 68.2443 69.3364 67.9657 69.3364 67.6221C69.3364 67.2785 69.6219 67 69.9741 67C70.3263 67 70.6118 67.2785 70.6118 67.6221C70.6118 67.9657 70.3263 68.2443 69.9741 68.2443Z" fill="#DB1B24"/>
    <path d="M66.623 74.2023C66.2709 74.2023 65.9854 73.9237 65.9854 73.5801C65.9854 73.2365 66.2709 72.958 66.6231 72.958C66.9752 72.958 67.2607 73.2365 67.2607 73.5801C67.2607 73.9237 66.9752 74.2023 66.623 74.2023Z" fill="#DB1B24"/>
    <path d="M65.9854 71.0011C65.6332 71.0011 65.3477 70.7226 65.3477 70.379C65.3477 70.0354 65.6332 69.7568 65.9854 69.7568C66.3375 69.7568 66.623 70.0354 66.623 70.379C66.623 70.7226 66.3375 71.0011 65.9854 71.0011Z" fill="#DB1B24"/>
    <path d="M61.6379 78.2179C61.2858 78.2179 61.0003 77.9394 61.0003 77.5958C61.0003 77.2522 61.2858 76.9736 61.6379 76.9736C61.9901 76.9736 62.2756 77.2522 62.2756 77.5958C62.2756 77.9394 61.9901 78.2179 61.6379 78.2179Z" fill="#DB1B24"/>
    <path d="M74.3254 75.8429C73.9733 75.8429 73.6878 75.5644 73.6878 75.2208C73.6878 74.8772 73.9733 74.5986 74.3254 74.5986C74.6776 74.5986 74.9631 74.8772 74.9631 75.2208C74.9631 75.5644 74.6776 75.8429 74.3254 75.8429Z" fill="#DB1B24"/>
    <path d="M68.2986 77.2057C67.7254 77.2057 67.2608 76.7524 67.2608 76.1932C67.2608 75.634 67.7254 75.1807 68.2986 75.1807C68.8718 75.1807 69.3364 75.634 69.3364 76.1932C69.3364 76.7524 68.8718 77.2057 68.2986 77.2057Z" fill="#DB1B24"/>
    <path d="M72.7499 78.2179C72.1767 78.2179 71.7121 77.7646 71.7121 77.2054C71.7121 76.6462 72.1767 76.1929 72.7499 76.1929C73.3231 76.1929 73.7877 76.6462 73.7877 77.2054C73.7877 77.7646 73.3231 78.2179 72.7499 78.2179Z" fill="#DB1B24"/>
    <path d="M63.6721 76.2271C63.099 76.2271 62.6343 75.7738 62.6343 75.2146C62.6343 74.6555 63.099 74.2021 63.6721 74.2021C64.2453 74.2021 64.71 74.6555 64.71 75.2146C64.71 75.7738 64.2453 76.2271 63.6721 76.2271Z" fill="#DB1B24"/>
    <path d="M65.3477 78.5255C64.9955 78.5255 64.71 78.247 64.71 77.9034C64.71 77.5598 64.9955 77.2812 65.3477 77.2812C65.6998 77.2812 65.9854 77.5598 65.9854 77.9034C65.9854 78.247 65.6998 78.5255 65.3477 78.5255Z" fill="#DB1B24"/>
    <path fill-rule="evenodd" clip-rule="evenodd" d="M20.6252 65.4375C20.6252 64.8852 21.073 64.4375 21.6252 64.4375H59.1252C59.6775 64.4375 60.1252 64.8852 60.1252 65.4375C60.1252 65.9898 59.6775 66.4375 59.1252 66.4375H22.6252V73.4375C22.6252 73.9898 22.1775 74.4375 21.6252 74.4375C21.073 74.4375 20.6252 73.9898 20.6252 73.4375V65.4375Z" fill="#FE666D"/>
    <path d="M55.9272 18.0601L56.1215 17.5231L58.0513 16.6421C58.2373 16.5538 58.3951 16.4727 58.5246 16.3987C58.6541 16.3247 58.7596 16.2458 58.8413 16.1621C58.923 16.0783 58.9843 15.9797 59.0254 15.8662C59.0723 15.7366 59.083 15.6151 59.0576 15.5017C59.0327 15.3869 58.9779 15.2855 58.8935 15.1976C58.809 15.1096 58.7013 15.0419 58.5704 14.9946C58.4355 14.9458 58.3071 14.931 58.1853 14.9504C58.064 14.9684 57.9569 15.0181 57.8641 15.0993C57.7726 15.181 57.7015 15.2919 57.6507 15.4322L56.9435 15.1763C57.0377 14.9158 57.1791 14.7109 57.3675 14.5616C57.556 14.4123 57.7735 14.3225 58.0201 14.2924C58.268 14.2628 58.5275 14.297 58.7986 14.3951C59.0738 14.4947 59.2969 14.6336 59.4681 14.8118C59.6392 14.9901 59.7499 15.1895 59.8 15.41C59.8514 15.6311 59.8356 15.8564 59.7525 16.0862C59.6969 16.2398 59.6129 16.3801 59.5005 16.5071C59.388 16.6341 59.2251 16.7609 59.0116 16.8876C58.7994 17.0148 58.514 17.1585 58.1554 17.3187L57.1879 17.7821L57.1777 17.8102L58.9649 18.4568L58.7402 19.0779L55.9272 18.0601Z" fill="#FFEF9C"/>
    <path d="M64.9009 22.8447C64.6295 22.6223 64.4529 22.3628 64.371 22.0661C64.2911 21.7692 64.3056 21.4478 64.4146 21.1019C64.5256 20.7558 64.7319 20.3987 65.0336 20.0306C65.3363 19.6635 65.6451 19.3931 65.9599 19.2196C66.2768 19.0458 66.5877 18.9701 66.8927 18.9923C67.1988 19.0154 67.487 19.1378 67.7573 19.3592C68.0276 19.5807 68.2041 19.8393 68.2869 20.1349C68.3697 20.4305 68.3565 20.7502 68.2473 21.0941C68.1392 21.439 67.9348 21.7948 67.6341 22.1618C67.3316 22.5309 67.021 22.8035 66.7023 22.9794C66.3857 23.1552 66.0738 23.232 65.7668 23.21C65.4609 23.1889 65.1723 23.0671 64.9009 22.8447ZM65.3236 22.3289C65.5346 22.5018 65.7861 22.5344 66.0782 22.4267C66.3723 22.3188 66.6855 22.0621 67.0177 21.6567C67.2374 21.3886 67.394 21.1404 67.4874 20.9121C67.5808 20.6838 67.6143 20.4817 67.5877 20.3057C67.5621 20.1286 67.4795 19.9828 67.34 19.8685C67.1301 19.6965 66.8787 19.6649 66.5857 19.7737C66.2936 19.8814 65.9822 20.1359 65.6516 20.5371C65.4299 20.8054 65.2713 21.0537 65.1759 21.2822C65.0816 21.5116 65.0472 21.7149 65.0729 21.892C65.0994 22.068 65.183 22.2137 65.3236 22.3289Z" fill="#FFEF9C"/>
    <path d="M70.4562 28.5789L70.9446 28.2829L72.9998 28.8087C73.2 28.8567 73.3738 28.8926 73.521 28.9163C73.6683 28.94 73.7999 28.9449 73.9161 28.931C74.0322 28.917 74.1419 28.8788 74.2452 28.8162C74.363 28.7448 74.4476 28.6569 74.499 28.5527C74.5517 28.4477 74.5727 28.3345 74.5622 28.2129C74.5517 28.0914 74.5103 27.9712 74.4382 27.8521C74.3638 27.7294 74.2731 27.6374 74.1661 27.576C74.0604 27.5139 73.9459 27.4853 73.8226 27.4902C73.7001 27.4964 73.5751 27.5381 73.4475 27.6154L73.0577 26.9722C73.2946 26.8286 73.5332 26.7579 73.7737 26.76C74.0141 26.762 74.2398 26.8287 74.4506 26.9601C74.6621 27.0926 74.8427 27.2822 74.9921 27.5288C75.1438 27.779 75.2303 28.0272 75.2516 28.2734C75.273 28.5196 75.2339 28.7443 75.1344 28.9474C75.0357 29.1517 74.8819 29.3172 74.673 29.4439C74.5333 29.5286 74.3798 29.585 74.2126 29.6133C74.0454 29.6416 73.8389 29.638 73.5932 29.6026C73.3482 29.5684 73.0358 29.5011 72.6561 29.4007L71.6121 29.154L71.5866 29.1695L72.5717 30.7948L72.0069 31.1372L70.4562 28.5789Z" fill="#FFEF9C"/>
    <path d="M74.9334 36.111L75.5463 35.9717L78.8093 37.1291L78.9254 37.6402L78.0528 37.8385L77.982 37.5268L75.7798 36.749L75.7465 36.7565L76.3192 39.2768L75.6855 39.4208L74.9334 36.111ZM74.6051 38.3203L75.5817 38.0985L75.8578 38.0444L78.8622 37.3618L79.0274 38.089L74.7723 39.0559L74.6051 38.3203Z" fill="#FFEF9C"/>
    <path d="M29.9176 35.1818H31.2074L32.9347 39.3977H33.0028L34.7301 35.1818H36.0199V41H35.0085V37.0028H34.9545L33.3466 40.983H32.5909L30.983 36.9943H30.929V41H29.9176V35.1818ZM38.3778 41.0881C38.1013 41.0881 37.8523 41.0388 37.6307 40.9403C37.411 40.84 37.2367 40.6922 37.108 40.4972C36.9811 40.3021 36.9176 40.0616 36.9176 39.7756C36.9176 39.5294 36.9631 39.3258 37.054 39.1648C37.1449 39.0038 37.2689 38.875 37.4261 38.7784C37.5833 38.6818 37.7604 38.6089 37.9574 38.5597C38.1563 38.5085 38.3617 38.4716 38.5739 38.4489C38.8295 38.4223 39.0369 38.3987 39.196 38.3778C39.3551 38.3551 39.4706 38.321 39.5426 38.2756C39.6165 38.2282 39.6534 38.1553 39.6534 38.0568V38.0398C39.6534 37.8258 39.59 37.66 39.4631 37.5426C39.3362 37.4252 39.1534 37.3665 38.9148 37.3665C38.6629 37.3665 38.4631 37.4214 38.3153 37.5312C38.1695 37.6411 38.071 37.7708 38.0199 37.9205L37.0597 37.7841C37.1354 37.5189 37.2604 37.2973 37.4347 37.1193C37.6089 36.9394 37.822 36.8049 38.0739 36.7159C38.3258 36.625 38.6042 36.5795 38.9091 36.5795C39.1193 36.5795 39.3286 36.6042 39.5369 36.6534C39.7453 36.7027 39.9356 36.7841 40.108 36.8977C40.2803 37.0095 40.4186 37.1619 40.5227 37.3551C40.6288 37.5483 40.6818 37.7898 40.6818 38.0795V41H39.6932V40.4006H39.6591C39.5966 40.5218 39.5085 40.6354 39.3949 40.7415C39.2831 40.8456 39.142 40.9299 38.9716 40.9943C38.803 41.0568 38.6051 41.0881 38.3778 41.0881ZM38.6449 40.3324C38.8513 40.3324 39.0303 40.2917 39.1818 40.2102C39.3333 40.1269 39.4498 40.017 39.5312 39.8807C39.6146 39.7443 39.6562 39.5956 39.6562 39.4347V38.9205C39.6241 38.947 39.5691 38.9716 39.4915 38.9943C39.4157 39.017 39.3305 39.0369 39.2358 39.054C39.1411 39.071 39.0473 39.0862 38.9545 39.0994C38.8617 39.1127 38.7813 39.1241 38.7131 39.1335C38.5597 39.1544 38.4223 39.1884 38.3011 39.2358C38.1799 39.2831 38.0843 39.3494 38.0142 39.4347C37.9441 39.518 37.9091 39.6259 37.9091 39.7585C37.9091 39.9479 37.9782 40.0909 38.1165 40.1875C38.2547 40.2841 38.4309 40.3324 38.6449 40.3324ZM41.7159 41V36.6364H42.7131V37.3636H42.7585C42.8381 37.1117 42.9744 36.9176 43.1676 36.7812C43.3627 36.643 43.5852 36.5739 43.8352 36.5739C43.892 36.5739 43.9555 36.5767 44.0256 36.5824C44.0975 36.5862 44.1572 36.5928 44.2045 36.6023V37.5483C44.161 37.5331 44.0919 37.5199 43.9972 37.5085C43.9044 37.4953 43.8144 37.4886 43.7273 37.4886C43.5398 37.4886 43.3712 37.5294 43.2216 37.6108C43.0739 37.6903 42.9574 37.8011 42.8722 37.9432C42.7869 38.0852 42.7443 38.2491 42.7443 38.4347V41H41.7159ZM46.0653 41.0881C45.7888 41.0881 45.5398 41.0388 45.3182 40.9403C45.0985 40.84 44.9242 40.6922 44.7955 40.4972C44.6686 40.3021 44.6051 40.0616 44.6051 39.7756C44.6051 39.5294 44.6506 39.3258 44.7415 39.1648C44.8324 39.0038 44.9564 38.875 45.1136 38.7784C45.2708 38.6818 45.4479 38.6089 45.6449 38.5597C45.8438 38.5085 46.0492 38.4716 46.2614 38.4489C46.517 38.4223 46.7244 38.3987 46.8835 38.3778C47.0426 38.3551 47.1581 38.321 47.2301 38.2756C47.304 38.2282 47.3409 38.1553 47.3409 38.0568V38.0398C47.3409 37.8258 47.2775 37.66 47.1506 37.5426C47.0237 37.4252 46.8409 37.3665 46.6023 37.3665C46.3504 37.3665 46.1506 37.4214 46.0028 37.5312C45.857 37.6411 45.7585 37.7708 45.7074 37.9205L44.7472 37.7841C44.8229 37.5189 44.9479 37.2973 45.1222 37.1193C45.2964 36.9394 45.5095 36.8049 45.7614 36.7159C46.0133 36.625 46.2917 36.5795 46.5966 36.5795C46.8068 36.5795 47.0161 36.6042 47.2244 36.6534C47.4328 36.7027 47.6231 36.7841 47.7955 36.8977C47.9678 37.0095 48.1061 37.1619 48.2102 37.3551C48.3163 37.5483 48.3693 37.7898 48.3693 38.0795V41H47.3807V40.4006H47.3466C47.2841 40.5218 47.196 40.6354 47.0824 40.7415C46.9706 40.8456 46.8295 40.9299 46.6591 40.9943C46.4905 41.0568 46.2926 41.0881 46.0653 41.0881ZM46.3324 40.3324C46.5388 40.3324 46.7178 40.2917 46.8693 40.2102C47.0208 40.1269 47.1373 40.017 47.2188 39.8807C47.3021 39.7443 47.3438 39.5956 47.3438 39.4347V38.9205C47.3116 38.947 47.2566 38.9716 47.179 38.9943C47.1032 39.017 47.018 39.0369 46.9233 39.054C46.8286 39.071 46.7348 39.0862 46.642 39.0994C46.5492 39.1127 46.4688 39.1241 46.4006 39.1335C46.2472 39.1544 46.1098 39.1884 45.9886 39.2358C45.8674 39.2831 45.7718 39.3494 45.7017 39.4347C45.6316 39.518 45.5966 39.6259 45.5966 39.7585C45.5966 39.9479 45.6657 40.0909 45.804 40.1875C45.9422 40.2841 46.1184 40.3324 46.3324 40.3324ZM51.5824 36.6364V37.4318H49.0739V36.6364H51.5824ZM49.6932 35.5909H50.7216V39.6875C50.7216 39.8258 50.7424 39.9318 50.7841 40.0057C50.8277 40.0777 50.8845 40.1269 50.9545 40.1534C51.0246 40.1799 51.1023 40.1932 51.1875 40.1932C51.2519 40.1932 51.3106 40.1884 51.3636 40.179C51.4186 40.1695 51.4602 40.161 51.4886 40.1534L51.6619 40.9574C51.607 40.9763 51.5284 40.9972 51.4261 41.0199C51.3258 41.0426 51.2027 41.0559 51.0568 41.0597C50.7992 41.0672 50.5672 41.0284 50.3608 40.9432C50.1544 40.8561 49.9905 40.7216 49.8693 40.5398C49.75 40.358 49.6913 40.1307 49.6932 39.858V35.5909ZM53.5646 38.4432V41H52.5362V35.1818H53.5419V37.3778H53.593C53.6953 37.1316 53.8535 36.9375 54.0675 36.7955C54.2834 36.6515 54.558 36.5795 54.8913 36.5795C55.1944 36.5795 55.4586 36.643 55.6839 36.7699C55.9093 36.8968 56.0836 37.0824 56.2067 37.3267C56.3317 37.571 56.3942 37.8693 56.3942 38.2216V41H55.3658V38.3807C55.3658 38.0871 55.29 37.8589 55.1385 37.696C54.9889 37.5312 54.7786 37.4489 54.5078 37.4489C54.326 37.4489 54.1631 37.4886 54.0192 37.5682C53.8771 37.6458 53.7654 37.7585 53.6839 37.9062C53.6044 38.054 53.5646 38.233 53.5646 38.4432ZM59.3459 41.0852C58.9197 41.0852 58.5504 40.9915 58.2379 40.804C57.9254 40.6165 57.683 40.3542 57.5107 40.017C57.3402 39.6799 57.255 39.286 57.255 38.8352C57.255 38.3845 57.3402 37.9896 57.5107 37.6506C57.683 37.3116 57.9254 37.0483 58.2379 36.8608C58.5504 36.6733 58.9197 36.5795 59.3459 36.5795C59.772 36.5795 60.1413 36.6733 60.4538 36.8608C60.7663 37.0483 61.0078 37.3116 61.1783 37.6506C61.3506 37.9896 61.4368 38.3845 61.4368 38.8352C61.4368 39.286 61.3506 39.6799 61.1783 40.017C61.0078 40.3542 60.7663 40.6165 60.4538 40.804C60.1413 40.9915 59.772 41.0852 59.3459 41.0852ZM59.3516 40.2614C59.5826 40.2614 59.7758 40.1979 59.9311 40.071C60.0864 39.9422 60.2019 39.7699 60.2777 39.554C60.3554 39.3381 60.3942 39.0975 60.3942 38.8324C60.3942 38.5653 60.3554 38.3239 60.2777 38.108C60.2019 37.8902 60.0864 37.7169 59.9311 37.5881C59.7758 37.4593 59.5826 37.3949 59.3516 37.3949C59.1148 37.3949 58.9179 37.4593 58.7607 37.5881C58.6054 37.7169 58.4889 37.8902 58.4112 38.108C58.3355 38.3239 58.2976 38.5653 58.2976 38.8324C58.2976 39.0975 58.3355 39.3381 58.4112 39.554C58.4889 39.7699 58.6054 39.9422 58.7607 40.071C58.9179 40.1979 59.1148 40.2614 59.3516 40.2614ZM63.3381 38.4432V41H62.3097V36.6364H63.2926V37.3778H63.3438C63.4441 37.1335 63.6042 36.9394 63.8239 36.7955C64.0455 36.6515 64.3191 36.5795 64.6449 36.5795C64.946 36.5795 65.2083 36.6439 65.4318 36.7727C65.6572 36.9015 65.8314 37.0881 65.9545 37.3324C66.0795 37.5767 66.1411 37.8731 66.1392 38.2216V41H65.1108V38.3807C65.1108 38.089 65.035 37.8608 64.8835 37.696C64.7339 37.5312 64.5265 37.4489 64.2614 37.4489C64.0814 37.4489 63.9214 37.4886 63.7812 37.5682C63.643 37.6458 63.5341 37.7585 63.4545 37.9062C63.3769 38.054 63.3381 38.233 63.3381 38.4432ZM36.4041 49.9205V49.0824L38.8729 45.1818H39.5717V46.375H39.1456L37.4837 49.0085V49.054H40.9297V49.9205H36.4041ZM39.1797 51V49.6648L39.1911 49.2898V45.1818H40.1854V51H39.1797ZM41.8374 51V50.2386L43.8572 48.2585C44.0504 48.0634 44.2114 47.8902 44.3402 47.7386C44.469 47.5871 44.5656 47.4403 44.63 47.2983C44.6944 47.1562 44.7266 47.0047 44.7266 46.8438C44.7266 46.66 44.6849 46.5028 44.6016 46.3722C44.5182 46.2396 44.4036 46.1373 44.2578 46.0653C44.112 45.9934 43.9463 45.9574 43.7607 45.9574C43.5694 45.9574 43.4018 45.9972 43.2578 46.0767C43.1139 46.1544 43.0021 46.2652 42.9226 46.4091C42.8449 46.553 42.8061 46.7244 42.8061 46.9233H41.8033C41.8033 46.554 41.8875 46.233 42.0561 45.9602C42.2247 45.6875 42.4567 45.4763 42.7521 45.3267C43.0495 45.1771 43.3904 45.1023 43.7749 45.1023C44.165 45.1023 44.5078 45.1752 44.8033 45.321C45.0987 45.4669 45.3279 45.6667 45.4908 45.9205C45.6555 46.1742 45.7379 46.464 45.7379 46.7898C45.7379 47.0076 45.6963 47.2216 45.6129 47.4318C45.5296 47.642 45.3828 47.875 45.1726 48.1307C44.9643 48.3864 44.6716 48.696 44.2947 49.0597L43.2919 50.0795V50.1193H45.826V51H41.8374ZM49.7393 49.6307L49.7365 48.3892H49.9013L51.4695 46.6364H52.6712L50.7422 48.7841H50.5291L49.7393 49.6307ZM48.8018 51V45.1818H49.8303V51H48.8018ZM51.5405 51L50.12 49.0142L50.8132 48.2898L52.7706 51H51.5405ZM53.3565 51V46.6364H54.3395V47.3778H54.3906C54.4815 47.1278 54.6321 46.9328 54.8423 46.7926C55.0526 46.6506 55.3035 46.5795 55.5952 46.5795C55.8906 46.5795 56.1397 46.6515 56.3423 46.7955C56.5469 46.9375 56.6908 47.1316 56.7741 47.3778H56.8196C56.9162 47.1354 57.0791 46.9422 57.3082 46.7983C57.5393 46.6525 57.813 46.5795 58.1293 46.5795C58.5308 46.5795 58.8584 46.7064 59.1122 46.9602C59.366 47.214 59.4929 47.5843 59.4929 48.071V51H58.4616V48.2301C58.4616 47.9593 58.3897 47.7614 58.2457 47.6364C58.1018 47.5095 57.9257 47.446 57.7173 47.446C57.4692 47.446 57.2751 47.5237 57.1349 47.679C56.9967 47.8324 56.9276 48.0322 56.9276 48.2784V51H55.919V48.1875C55.919 47.9621 55.8509 47.7822 55.7145 47.6477C55.58 47.5133 55.4039 47.446 55.1861 47.446C55.0384 47.446 54.9039 47.4839 54.7827 47.5597C54.6615 47.6335 54.5649 47.7386 54.4929 47.875C54.4209 48.0095 54.3849 48.1667 54.3849 48.3466V51H53.3565Z" fill="#BC7C00"/>
    <path d="M40.8207 75.0696C40.4793 75.0696 40.1744 75.0108 39.9059 74.8931C39.6391 74.7754 39.4278 74.6122 39.272 74.4034C39.1179 74.1929 39.035 73.9493 39.0234 73.6726H39.804C39.8139 73.8234 39.8645 73.9543 39.9556 74.0653C40.0484 74.1747 40.1694 74.2592 40.3185 74.3189C40.4677 74.3786 40.6334 74.4084 40.8157 74.4084C41.0162 74.4084 41.1935 74.3736 41.3477 74.304C41.5034 74.2344 41.6252 74.1374 41.7131 74.0131C41.8009 73.8872 41.8448 73.7422 41.8448 73.5781C41.8448 73.4074 41.8009 73.2575 41.7131 73.1282C41.6269 72.9973 41.5001 72.8945 41.3327 72.82C41.167 72.7454 40.9665 72.7081 40.7312 72.7081H40.3011V72.0817H40.7312C40.9201 72.0817 41.0858 72.0477 41.2283 71.9798C41.3725 71.9118 41.4852 71.8174 41.5664 71.6964C41.6476 71.5737 41.6882 71.4304 41.6882 71.2663C41.6882 71.1089 41.6526 70.9722 41.5813 70.8562C41.5117 70.7385 41.4123 70.6465 41.283 70.5803C41.1554 70.514 41.0046 70.4808 40.8306 70.4808C40.6649 70.4808 40.5099 70.5115 40.3658 70.5728C40.2232 70.6325 40.1072 70.7186 40.0178 70.8313C39.9283 70.9424 39.8802 71.0758 39.8736 71.2315H39.1303C39.1386 70.9564 39.2198 70.7145 39.3739 70.5057C39.5297 70.2969 39.7352 70.1336 39.9904 70.016C40.2456 69.8983 40.529 69.8395 40.8406 69.8395C41.167 69.8395 41.4487 69.9033 41.6857 70.0309C41.9244 70.1568 42.1083 70.325 42.2376 70.5355C42.3685 70.746 42.4331 70.9763 42.4315 71.2266C42.4331 71.5116 42.3536 71.7536 42.1928 71.9524C42.0337 72.1513 41.8216 72.2847 41.5565 72.3526V72.3924C41.8945 72.4438 42.1564 72.578 42.342 72.7951C42.5292 73.0122 42.622 73.2815 42.6204 73.603C42.622 73.883 42.5442 74.1341 42.3867 74.3562C42.2309 74.5782 42.018 74.7531 41.7479 74.8807C41.4777 75.0066 41.1687 75.0696 40.8207 75.0696ZM44.3132 72.733V75H43.57V69.9091H44.3033V71.8033H44.3505C44.44 71.5978 44.5767 71.4345 44.7607 71.3136C44.9446 71.1926 45.1849 71.1321 45.4815 71.1321C45.7434 71.1321 45.9721 71.186 46.1676 71.2937C46.3648 71.4014 46.5173 71.5621 46.625 71.7759C46.7344 71.988 46.7891 72.2532 46.7891 72.5714V75H46.0458V72.6609C46.0458 72.3808 45.9737 72.1637 45.8295 72.0096C45.6854 71.8538 45.4848 71.7759 45.228 71.7759C45.0523 71.7759 44.8949 71.8132 44.7557 71.8878C44.6181 71.9624 44.5096 72.0717 44.43 72.2159C44.3522 72.3584 44.3132 72.5308 44.3132 72.733ZM47.6641 74.0057V73.3842L49.864 69.9091H50.3537V70.8239H50.043L48.4695 73.3146V73.3544H51.4847V74.0057H47.6641ZM50.0778 75V73.8168L50.0827 73.5334V69.9091H50.8111V75H50.0778ZM52.2441 74.0057V73.3842L54.4441 69.9091H54.9338V70.8239H54.623L53.0495 73.3146V73.3544H56.0648V74.0057H52.2441ZM54.6578 75V73.8168L54.6628 73.5334V69.9091H55.3912V75H54.6578Z" fill="#E1E1E1"/>
    </svg>
    