<?xml version="1.0" encoding="iso-8859-1"?>
<!-- Uploaded to: SVG Repo, www.svgrepo.com, Generator: SVG Repo Mixer Tools -->
<svg fill="#ffffff" height="800px" width="800px" version="1.1" id="Layer_1" xmlns="http://www.w3.org/2000/svg" xmlns:xlink="http://www.w3.org/1999/xlink" 
	 viewBox="0 0 494.098 494.098" xml:space="preserve">
<path d="M384.367,27.398L304.378,8.369L247.049,83.31L189.72,8.369l-79.99,19.029L0,125.767l62.609,96.939l39.297-18.416v281.438
	H392.19V204.291l39.297,18.416l62.61-96.939L384.367,27.398z M73.599,184.426l-34.501-53.419l84.986-76.187l53.639-12.761
	l169.109,221.064H131.907V157.102L73.599,184.426z M131.907,455.729V293.124h69.142v127.605h30V293.124h32v77.605h30v-77.605h69.142
	v162.605H131.907z M420.499,184.426l-58.309-27.325v76.725l-96.256-125.829l50.441-65.938l53.638,12.761L455,131.007
	L420.499,184.426z"/>
</svg>